<?xml version="1.0" encoding="utf-8"?>
<!-- Svg Vector Icons : http://www.onlinewebfonts.com/icon -->
<!DOCTYPE svg PUBLIC "-//W3C//DTD SVG 1.1//EN" "http://www.w3.org/Graphics/SVG/1.1/DTD/svg11.dtd">
<svg version="1.1" xmlns="http://www.w3.org/2000/svg" xmlns:xlink="http://www.w3.org/1999/xlink" x="0px" y="0px" viewBox="0 0 1000 1000" enable-background="new 0 0 1000 1000" xml:space="preserve">
<metadata> Svg Vector Icons : http://www.onlinewebfonts.com/icon </metadata>
<g><g transform="translate(0.000000,511.000000) scale(0.100000,-0.100000)"><path d="M2305.7,4492.2c-474.1-283.7-878.8-531.7-896.7-547.5c-47.6-43.6-49.6-15.9,45.6-1811.2C1542,451.2,1536,504.8,1653.1,463.1l57.5-19.8v-617v-617l250-620.9l248-618.9l-41.7-648.7c-23.8-357.1-37.7-668.5-31.7-690.4c6-23.8,128.9-148.8,273.8-279.7c142.8-130.9,484-440.4,755.8-690.4l494-450.3h1424.4h1424.4l732,664.6c400.7,365,747.9,686.4,767.7,714.2c37.7,47.6,37.7,57.5-4,712.2l-43.6,664.6l248,620.9l249.9,620.9l6,783.6c5.9,581.3,29.8,1184.3,91.2,2331c71.4,1317.2,79.4,1553.3,57.5,1593c-15.9,23.8-402.7,281.7-861,569.4L6918.1,5010H5043.4H3168.7L2305.7,4492.2z M7552.9,4218.5c404.7-253.9,736-466.2,740-468.2c9.9-7.9-132.9-2817-146.8-2902.3l-9.9-65.5l-172.6,6l-172.6,5.9l-5.9,1134.7l-4,1136.7l-95.2,71.4c-51.6,39.7-351.1,248-668.6,462.2L6442,3988.3l-1378.7,4l-1378.7,5.9l-714.2-444.4c-434.4-271.8-724.1-462.2-738-490c-19.8-35.7-25.8-317.4-25.8-1162.5V784.5H2028h-178.5l-2,85.3c0,45.6-33.7,706.2-73.4,1468c-41.7,761.8-69.4,1392.6-63.5,1402.6c6,7.9,361.1,226.2,791.5,484l781.6,468.2l1767.6-4l1767.6-6L7552.9,4218.5z M5666.3,3163.1c-261.9-525.7-269.8-549.5-186.5-632.8c43.7-43.6,138.9-51.6,200.4-17.9c23.8,11.9,152.7,246,317.4,579.3c152.8,307.5,287.6,563.4,297.6,567.4c25.8,7.9,299.6-172.6,289.6-192.4c-15.9-25.8-789.6-1731.9-807.4-1781.5c-21.8-57.5,9.9-160.7,59.5-186.5c69.4-37.7,172.6-23.8,212.3,25.8c19.8,25.8,210.3,432.5,422.5,902.6c212.3,470.2,396.8,855,406.7,855c11.9,0,144.8-87.3,297.6-192.4l277.7-194.4l6-1055.4l4-1055.4H5003.7H2543.8v1057.4v1055.4l611,380.9l609,380.9l1077.2,2h1075.2L5666.3,3163.1z M2067.7,413.5c2-19.8,35.7-303.5,77.4-628.9c73.4-579.3,75.4-595.1,128.9-640.8l53.6-45.6h991.9c543.6,0,989.9-7.9,989.9-17.9c0-7.9-53.6-134.9-119-279.7c-65.5-144.8-119-285.7-119-311.5c0-25.8,21.8-69.4,49.6-95.2l47.6-49.6h537.6h535.6v158.7v158.7h-367c-244,0-367,7.9-367,21.8c0,9.9,61.5,154.8,136.9,321.4c73.4,166.7,136.9,329.3,136.9,361.1c6,97.2,216.2,894.7,228.1,863c7.9-15.9,71.4-261.9,140.9-545.5c103.2-408.7,136.9-523.7,172.6-549.5c39.7-33.7,125-35.7,1192.3-35.7c745.9,0,1162.5,7.9,1186.3,19.8c21.8,11.9,47.6,37.7,59.5,61.5c11.9,21.8,53.6,285.7,89.3,589.2c95.2,761.8,71.4,678.5,190.4,678.5h99.2l-5.9-589.2l-5.9-591.2L7876.3-1358l-250-626.9l37.7-563.4c19.8-311.5,37.7-597.1,37.7-634.8c0-67.5-27.8-97.2-619-634.8c-339.2-311.5-644.7-585.2-678.5-609l-59.5-45.6H5081.1H3817.4l-67.5,53.6c-55.5,47.6-1112.9,1003.8-1243.8,1128.8l-45.6,43.7l41.7,632.8l41.7,632.8l-257.9,642.8L2028-693.4v571.3c0,367,7.9,569.4,19.8,569.4C2059.7,447.2,2067.7,431.4,2067.7,413.5z M4593.1,16.8c-59.5-238.1-115.1-466.2-127-505.9l-19.8-75.4h-960.2c-529.7,0-962.1,2-962.1,5.9c-2,2-31.7,230.1-67.4,505.9L2391,447.2h1154.6h1156.6L4593.1,16.8z M5944,334.2c-27.8-289.6,208.3-551.5,497.9-549.5c214.2,0,414.6,156.7,476.1,375c29.8,101.2,29.8,144.8-2,253.9c-9.9,31.7,15.9,33.7,337.2,33.7c192.4,0,349.1-5.9,349.1-13.9c0-9.9-27.8-226.2-59.5-482.1c-31.7-255.9-59.5-478.1-59.5-490c0-19.8-206.3-25.8-968.1-25.8h-966.1l-117,472.1c-65.5,257.9-121,486-127,505.9c-7.9,31.7,17.9,33.7,321.4,33.7h329.3L5944,334.2z M6570.9,407.6c53.6-53.6,53.6-176.6-2-246c-33.7-41.7-57.5-51.6-128.9-51.6c-119,0-166.7,49.6-166.7,168.6c0,63.5,11.9,101.2,39.7,128.9c27.8,27.8,65.5,39.7,128.9,39.7S6543.1,435.3,6570.9,407.6z"/><path d="M4190.4-2191.2c-277.7-51.6-519.8-97.2-535.6-101.2c-27.8-7.9-27.8-23.8,0-168.6l29.8-160.7l466.2,87.3c255.9,45.6,480.1,85.3,497.9,85.3s83.3-67.5,144.8-148.8c168.6-224.2,250-222.2,418.6,9.9c65.5,91.3,113.1,136.9,138.9,136.9c21.8,0,248-37.7,499.9-85.3c404.7-73.4,462.2-81.3,470.2-53.6c17.9,57.5,53.5,283.7,47.6,289.6c-4,4-259.9,51.6-569.4,109.1c-436.4,79.4-573.3,99.2-609,83.3c-23.8-11.9-73.4-61.5-111.1-111.1c-35.7-49.6-71.4-89.3-79.4-91.3c-7.9,0-41.7,41.7-75.4,91.3c-61.5,87.3-127,128.9-194.4,125C4712.1-2096,4468.1-2139.6,4190.4-2191.2z"/><path d="M4587.1-3272.4V-3441h416.6h416.6v168.6v168.6h-416.6h-416.6V-3272.4z"/></g></g>
</svg>